PathFileType	4	(X/Y/Z)	/Users/itak/Documents/Research/Walk-IL/dataset/trc/00431_00167.trc
DataRate	CameraRate	NumFrames	NumMarkers	Units	OrigDataRate	OrigDataStartFrame	OrigNumFrames
100.000000	100.000000	4	54	mm	100.000000	0	673
Frame#	Time	RPSI			LPSI			L3			STRN			T10			C7			CLAV			RBAK			LBAK			LSHO			LUPA			LAEL			LAOL			LWTS			LWPS			LFRA			LIFD			LHPS			LHTS			RSHO			RUPA			RAEL			RAOL			RWTS			RWPS			RFRA			RIFD			RHTS			RHPS			RBHD			LFHD			RFHD			LBHD			LHIP			RHIP			RASI			LASI			LKNE			LTHI			LANK			LTIP			LTOE			LMT1			LMT5			LHEE			RKNE			RTHI			RANK			RTIP			RTOE			RMT1			RMT5			RHEE			*53			
		X1	Y1	Z1	X2	Y2	Z2	X3	Y3	Z3	X4	Y4	Z4	X5	Y5	Z5	X6	Y6	Z6	X7	Y7	Z7	X8	Y8	Z8	X9	Y9	Z9	X10	Y10	Z10	X11	Y11	Z11	X12	Y12	Z12	X13	Y13	Z13	X14	Y14	Z14	X15	Y15	Z15	X16	Y16	Z16	X17	Y17	Z17	X18	Y18	Z18	X19	Y19	Z19	X20	Y20	Z20	X21	Y21	Z21	X22	Y22	Z22	X23	Y23	Z23	X24	Y24	Z24	X25	Y25	Z25	X26	Y26	Z26	X27	Y27	Z27	X28	Y28	Z28	X29	Y29	Z29	X30	Y30	Z30	X31	Y31	Z31	X32	Y32	Z32	X33	Y33	Z33	X34	Y34	Z34	X35	Y35	Z35	X36	Y36	Z36	X37	Y37	Z37	X38	Y38	Z38	X39	Y39	Z39	X40	Y40	Z40	X41	Y41	Z41	X42	Y42	Z42	X43	Y43	Z43	X44	Y44	Z44	X45	Y45	Z45	X46	Y46	Z46	X47	Y47	Z47	X48	Y48	Z48	X49	Y49	Z49	X50	Y50	Z50	X51	Y51	Z51	X52	Y52	Z52	X53	Y53	Z53	X54	Y54	Z54	

1	0	-1190.402099609375	981.13232421875	-456.0059509277344	-1116.641723632812	976.4030151367188	-576.9888916015625	-1146.5693359375	1069.5546875	-493.255126953125	-905.1866455078125	1254.868286132812	-375.4468383789062	-1160.8720703125	1192.661743164062	-503.0895385742188	-1105.87255859375	1459.790893554688	-464.3451232910156	-933.9107666015625	1369.560913085938	-395.8390502929688	-1206.732421875	1341.931396484375	-406.6761474609375	-1092.588623046875	1412.585327148438	-566.8341674804688	-964.0093383789062	1427.126220703125	-593.4061889648438	-938.3771362304688	1307.495239257812	-688.3672485351562	-910.0540161132812	1094.531372070312	-715.9794311523438	-1008.628662109375	1078.249633789062	-682.8065795898438	-842.8270874023438	895.3892211914062	-649.3171997070312	-867.9067993164062	878.248779296875	-717.5062866210938	-885.9530029296875	1007.701599121094	-719.3361206054688	-835.0210571289062	726.3214111328125	-648.4780883789062	-860.0274047851562	797.2301635742188	-712.6353149414062	-823.2179565429688	805.9314575195312	-652.0106811523438	-1112.21435546875	1429.538208007812	-289.114013671875	-1161.542602539062	1369.812377929688	-226.2909240722656	-1183.841064453125	1082.751831054688	-172.0023498535156	-1216.449829101562	1065.017456054688	-228.9403076171875	-1068.738037109375	885.0813598632812	-164.2265319824219	-1152.927612304688	869.63330078125	-142.4779968261719	-1183.0439453125	1024.545532226562	-161.1075744628906	-1070.800415039062	725.9276123046875	-146.0472869873047	-1060.843139648438	786.1064453125	-139.537109375	-1135.686889648438	785.6925659179688	-129.6361541748047	-1060.068359375	1654.140869140625	-351.9363708496094	-866.1533203125	1660.909545898438	-426.0510559082031	-927.805419921875	1661.8056640625	-310.4341735839844	-990.1043090820312	1659.197998046875	-515.846923828125	-946.3897705078125	860.014404296875	-608.8070678710938	-1168.528930664062	867.29248046875	-282.6410217285156	-1045.34130859375	902.6002807617188	-275.560302734375	-899.1619262695312	894.955322265625	-489.62939453125	-984.7360229492188	436.2452392578125	-568.4767456054688	-946.27978515625	586.8720703125	-580.8271484375	-1045.468383789062	34.75966262817383	-579.9608154296875	-988.497314453125	286.0921325683594	-573.0397338867188	-895.8156127929688	45.27383422851562	-401.6452941894531	-973.7218017578125	49.89780044555664	-418.1806335449219	-911.74072265625	45.77915191650391	-513.124755859375	-1119.248291015625	38.90818786621094	-568.714111328125	-1141.60791015625	467.5412292480469	-303.8307189941406	-1141.812866210938	730.1329956054688	-253.6484832763672	-1155.4208984375	42.53915786743164	-323.0702209472656	-1147.08251953125	321.5344848632812	-293.4643249511719	-941.9541015625	47.78800201416016	-272.0811767578125	-985.4596557617188	55.20058059692383	-330.6738586425781	-1045.534912109375	49.27629470825195	-242.2181854248047	-1194.152221679688	34.20298004150391	-395.2168579101562	nan	nan	nan	
2	0.01	-1190.386962890625	981.1009521484375	-456.0075378417969	-1116.42431640625	976.2559204101562	-576.8817749023438	-1146.566162109375	1069.540283203125	-493.2878112792969	-905.1923828125	1254.870727539062	-375.5208129882812	-1160.872924804688	1192.633178710938	-503.152099609375	-1105.90625	1459.784301757812	-464.429443359375	-933.934814453125	1369.57080078125	-395.9136962890625	-1206.745361328125	1341.921142578125	-406.7156982421875	-1092.645385742188	1412.559326171875	-566.90625	-964.0947875976562	1427.1015625	-593.5059204101562	-938.3892211914062	1307.498046875	-688.4404907226562	-910.0708618164062	1094.557495117188	-716.1134033203125	-1008.643310546875	1078.266357421875	-682.8616943359375	-842.7826538085938	895.416748046875	-649.4682006835938	-867.7366943359375	878.2646484375	-717.6149291992188	-885.9435424804688	1007.727355957031	-719.4570922851562	-834.8956298828125	726.3493041992188	-648.599609375	-859.9085083007812	797.3302612304688	-712.8189697265625	-823.0313110351562	806.0198364257812	-652.2049560546875	-1112.233154296875	1429.541015625	-289.1534423828125	-1161.504028320312	1369.818969726562	-226.3695678710938	-1183.813720703125	1082.747802734375	-172.0525665283203	-1216.387451171875	1065.013061523438	-229.0272064208984	-1068.702270507812	885.0770874023438	-164.2910003662109	-1152.888305664062	869.6284790039062	-142.5348815917969	-1183.005126953125	1024.546630859375	-161.1669158935547	-1070.78466796875	725.9213256835938	-146.1276550292969	-1060.824829101562	786.0982055664062	-139.5779113769531	-1135.662353515625	785.6907348632812	-129.6819458007812	-1060.106689453125	1654.141723632812	-351.9959716796875	-866.1961669921875	1660.930297851562	-426.2417602539062	-927.8528442382812	1661.812622070312	-310.5452880859375	-990.12939453125	1659.19189453125	-515.9090576171875	-946.3796997070312	860.0137329101562	-608.8325805664062	-1168.49951171875	867.2942504882812	-282.647216796875	-1045.317016601562	902.6048583984375	-275.5767517089844	-899.1460571289062	894.9657592773438	-489.64697265625	-984.7283935546875	436.2422180175781	-568.4902954101562	-946.2880859375	586.8663940429688	-580.8499145507812	-1045.476928710938	34.75722122192383	-579.9664916992188	-988.4932250976562	286.0941467285156	-573.0560913085938	-895.8231811523438	45.27287292480469	-401.6499328613281	-973.7210083007812	49.89775085449219	-418.1823425292969	-911.7493286132812	45.77900314331055	-513.1244506835938	-1119.255615234375	38.90990829467773	-568.7222900390625	-1141.571044921875	467.5452880859375	-303.8354797363281	-1141.787963867188	730.130126953125	-253.6585388183594	-1155.420654296875	42.54685592651367	-323.0701599121094	-1147.055053710938	321.5346069335938	-293.4718017578125	-941.950439453125	47.78382873535156	-272.0834350585938	-985.4556884765625	55.19746017456055	-330.6821899414062	-1045.533569335938	49.27801513671875	-242.2239227294922	-1194.149291992188	34.20881652832031	-395.2245483398438	nan	nan	nan	
3	0.02	-1190.36572265625	981.0634765625	-456.0125427246094	-1116.224853515625	976.1190795898438	-576.7835693359375	-1146.564086914062	1069.52197265625	-493.3265686035156	-905.203857421875	1254.874267578125	-375.6060485839844	-1160.873901367188	1192.597900390625	-503.2271423339844	-1105.948608398438	1459.773559570312	-464.5281677246094	-933.9689331054688	1369.581665039062	-396.0021667480469	-1206.762817382812	1341.90771484375	-406.7670288085938	-1092.71630859375	1412.523803710938	-566.995361328125	-964.197265625	1427.0751953125	-593.6319580078125	-938.4080810546875	1307.503173828125	-688.5363159179688	-910.0994262695312	1094.5888671875	-716.2841186523438	-1008.566101074219	1078.222778320312	-682.9021606445312	-842.716796875	895.4509887695312	-649.6517333984375	-867.5296630859375	878.2919921875	-717.7569580078125	-885.9319458007812	1007.7626953125	-719.607421875	-834.7118530273438	726.3858032226562	-648.7720947265625	-859.7586059570312	797.4508666992188	-713.0347290039062	-822.8238525390625	806.1193237304688	-652.4288940429688	-1112.255737304688	1429.544555664062	-289.2078857421875	-1161.462036132812	1369.825805664062	-226.4658355712891	-1183.77978515625	1082.742797851562	-172.1153869628906	-1216.31982421875	1065.0087890625	-229.1274871826172	-1068.657958984375	885.0714721679688	-164.3717498779297	-1152.828979492188	869.62255859375	-142.6176300048828	-1182.956787109375	1024.547485351562	-161.24169921875	-1070.763916015625	725.914306640625	-146.2210388183594	-1060.794067382812	786.0870361328125	-139.6448669433594	-1135.629760742188	785.6898803710938	-129.7378387451172	-1060.160034179688	1654.14306640625	-352.0703125	-866.2463989257812	1660.956665039062	-426.4635620117188	-927.9094848632812	1661.822387695312	-310.6878662109375	-990.1613159179688	1659.180297851562	-515.990966796875	-946.3665161132812	860.0107421875	-608.8628540039062	-1168.464599609375	867.2967529296875	-282.6557922363281	-1045.284790039062	902.612548828125	-275.5978698730469	-899.1368408203125	894.9719848632812	-489.6653442382812	-984.7271118164062	436.2357482910156	-568.5078125	-946.2978515625	586.8609619140625	-580.8738403320312	-1045.48974609375	34.75506210327148	-579.9747314453125	-988.4915161132812	286.0939636230469	-573.073974609375	-895.8311157226562	45.27217483520508	-401.6551208496094	-973.7202758789062	49.89797973632812	-418.1848449707031	-911.7569580078125	45.77850341796875	-513.124755859375	-1119.263305664062	38.90916442871094	-568.7296752929688	-1141.52001953125	467.5509338378906	-303.8394470214844	-1141.755249023438	730.1261596679688	-253.6696319580078	-1155.417236328125	42.55508804321289	-323.07177734375	-1147.017456054688	321.5351867675781	-293.47998046875	-941.94580078125	47.77950668334961	-272.0852966308594	-985.4528198242188	55.19366455078125	-330.6903991699219	-1045.53173828125	49.28057861328125	-242.2312164306641	-1194.145141601562	34.21419906616211	-395.2346801757812	nan	nan	nan	
4	0.03	-1190.338989257812	981.0228271484375	-456.0223083496094	-1116.068481445312	976.0086059570312	-576.70654296875	-1146.564086914062	1069.500366210938	-493.3688659667969	-905.2227172851562	1254.879150390625	-375.6957092285156	-1160.875122070312	1192.557250976562	-503.3100891113281	-1105.998291015625	1459.757568359375	-464.6362915039062	-934.0133056640625	1369.592651367188	-396.0990905761719	-1206.784545898438	1341.891723632812	-406.829345703125	-1092.798095703125	1412.478149414062	-567.0972900390625	-964.3101806640625	1427.05029296875	-593.7794189453125	-938.433349609375	1307.511108398438	-688.6525268554688	-910.1404418945312	1094.6240234375	-716.4849243164062	-1008.355285644531	1078.090087890625	-682.9136352539062	-842.6236572265625	895.4917602539062	-649.8568725585938	-867.2974853515625	878.333251953125	-717.9283447265625	-885.9169311523438	1007.807678222656	-719.7802124023438	-834.4607543945312	726.4332885742188	-648.9918212890625	-859.5814208984375	797.5829467773438	-713.2670288085938	-822.61376953125	806.2213134765625	-652.6643676757812	-1112.280395507812	1429.548706054688	-289.2781372070312	-1161.420776367188	1369.832275390625	-226.5753784179688	-1183.740844726562	1082.7373046875	-172.1885375976562	-1216.254760742188	1065.005004882812	-229.2328796386719	-1068.605834960938	885.0651245117188	-164.4663543701172	-1152.749145507812	869.6163330078125	-142.7257080078125	-1182.900756835938	1024.547973632812	-161.3294830322266	-1070.73779296875	725.9070434570312	-146.3205871582031	-1060.749633789062	786.0732421875	-139.7388153076172	-1135.588623046875	785.6907958984375	-129.8013153076172	-1060.226928710938	1654.144775390625	-352.1571350097656	-866.300537109375	1660.987670898438	-426.6992797851562	-927.9714965820312	1661.835205078125	-310.8572998046875	-990.20068359375	1659.161865234375	-516.092529296875	-946.3506469726562	860.005126953125	-608.8959350585938	-1168.425903320312	867.2996826171875	-282.6673583984375	-1045.24609375	902.6240844726562	-275.6225280761719	-899.1370849609375	894.9721069335938	-489.6824645996094	-984.7339477539062	436.2256469726562	-568.5281372070312	-946.3067016601562	586.8572998046875	-580.8956298828125	-1045.507202148438	34.75358963012695	-579.9857788085938	-988.4923095703125	286.0913391113281	-573.0917358398438	-895.8385620117188	45.27218246459961	-401.6602172851562	-973.7195434570312	49.89841461181641	-418.1883239746094	-911.7623901367188	45.77778625488281	-513.1260375976562	-1119.270629882812	38.90544128417969	-568.7352905273438	-1141.455078125	467.5577087402344	-303.8417358398438	-1141.715209960938	730.12109375	-253.6811218261719	-1155.410888671875	42.5635871887207	-323.0757141113281	-1146.9697265625	321.5361938476562	-293.4880065917969	-941.9405517578125	47.77560806274414	-272.0859985351562	-985.4515991210938	55.18922424316406	-330.697998046875	-1045.528686523438	49.28398132324219	-242.2401123046875	-1194.14013671875	34.21846771240234	-395.2464904785156	nan	nan	nan	
